<svg xmlns="http://www.w3.org/2000/svg" viewBox="0 0 412.83 137.51"><defs><style>.cls-1,.cls-2{fill:#fff;}.cls-2{stroke:#fff;stroke-miterlimit:10;stroke-width:0.75px;}</style></defs><g id="Layer_2" data-name="Layer 2"><g id="_1.2" data-name="1.2"><rect class="cls-1" x="228.11" y="20.5" width="43" height="2" transform="translate(271.11 -228.11) rotate(90)"/><rect class="cls-1" x="228.11" y="20.5" width="43" height="2" transform="translate(271.11 -228.11) rotate(90)"/><rect class="cls-1" x="390.33" y="20.5" width="43" height="2" transform="translate(433.33 -390.33) rotate(90)"/><path class="cls-1" d="M52.72,59.05c4-10.67,6.88-14.57,11.68-19.44a22.9,22.9,0,0,1,16.8-7.3,19.35,19.35,0,0,1,7.1,1.3,17.69,17.69,0,0,1,5.8,3.7,17.23,17.23,0,0,1,3.9,5.6,16.86,16.86,0,0,1,1.4,6.8,16.86,16.86,0,0,1-4.5,12A14.39,14.39,0,0,1,84,66.51a13.57,13.57,0,0,1-9.4-3.4,6.14,6.14,0,0,1-1-.8,12.23,12.23,0,0,1-.9-1c-.33-.4-.8-1-1.4-1.8s-1.43-1.93-2.5-3.4c-2.13-2.66-4.2-4-6.2-4q-3.8,0-6.2,4.2a21,21,0,0,0-1.9,4.1,28.2,28.2,0,0,0-1.1,5.2,73.64,73.64,0,0,0-.5,7.6q-.1,4.5-.1,11.1v25a118.88,118.88,0,0,0,.5,12.2,14.93,14.93,0,0,0,2.2,7,8.59,8.59,0,0,0,4.8,3.3,36.49,36.49,0,0,0,8.5,1.1v2H1.4v-2a36.49,36.49,0,0,0,8.5-1.1,8.59,8.59,0,0,0,4.8-3.3,14.93,14.93,0,0,0,2.2-7,118.88,118.88,0,0,0,.5-12.2V76.51a82.16,82.16,0,0,0-.8-13.4,17.76,17.76,0,0,0-3.2-7.6,13.65,13.65,0,0,0-5.1-4.1,24.82,24.82,0,0,0-7.9-1.7l-.4-2C5.33,46.51,47,34,52.72,31.85Z"/><path class="cls-1" d="M140.37,75.31q.19,37.2,33.4,37.2,10.8,0,18.2-4.1t13.6-13.3l1.8.8q-1.6,4.41-3.1,7.8t-3,6.2a40.37,40.37,0,0,1-3.3,5.2q-1.8,2.4-3.8,5a47.41,47.41,0,0,1-16.8,12.9,50.66,50.66,0,0,1-21.4,4.5,55.5,55.5,0,0,1-20.9-3.9,51.17,51.17,0,0,1-16.8-10.8,49.55,49.55,0,0,1-11.1-16.3,51,51,0,0,1-4-20.2A53.14,53.14,0,0,1,119,48a55,55,0,0,1,17.3-11.5,54,54,0,0,1,21.3-4.2,52.16,52.16,0,0,1,23.1,5.1,46.58,46.58,0,0,1,17.5,14.7,40.5,40.5,0,0,1,5.6,10.3,64.16,64.16,0,0,1,2.8,12.9Zm30.6-2.4q0-10-.3-15.5a68.73,68.73,0,0,0-1.1-9.5q-2.81-13-12.4-13-8.21,0-12.6,9.8t-4.4,28.2Z"/><path class="cls-2" d="M271.11,23a8.91,8.91,0,0,1,9.09-9.29A8.53,8.53,0,0,1,287,16.76l-1.15.83a7.35,7.35,0,0,0-5.6-2.5c-4.2,0-7.48,3.2-7.48,7.89s3.28,7.91,7.48,7.91a7.57,7.57,0,0,0,5.27-2.18V24.4h-6.78V23H287V29.3a9,9,0,0,1-6.81,3A8.94,8.94,0,0,1,271.11,23Z"/><path class="cls-2" d="M309.5,31.94l-5-7.43h-4v7.43H299V14h6.7c3.1,0,5.46,2,5.46,5.25a4.92,4.92,0,0,1-5,5.16l5.19,7.54Zm0-12.7a3.73,3.73,0,0,0-4-3.85h-5v7.72h5A3.74,3.74,0,0,0,309.53,19.24Z"/><path class="cls-2" d="M322.36,23c0-5.25,3.45-9.29,8.72-9.29s8.72,4,8.72,9.29-3.47,9.28-8.72,9.28S322.36,28.22,322.36,23Zm15.83,0c0-4.55-2.8-7.89-7.11-7.89S324,18.43,324,23s2.77,7.88,7.1,7.88S338.19,27.5,338.19,23Z"/><path class="cls-2" d="M351.67,25.05V14h1.56V25c0,3.63,1.91,5.84,5.43,5.84s5.44-2.21,5.44-5.84V14h1.56V25.05c0,4.44-2.37,7.21-7,7.21S351.67,29.46,351.67,25.05Z"/><path class="cls-2" d="M378.2,31.94V14h6.72a5.1,5.1,0,0,1,5.41,5.25,5.11,5.11,0,0,1-5.41,5.24h-5.19v7.46Zm10.52-12.7a3.7,3.7,0,0,0-4-3.85h-5v7.69h5A3.71,3.71,0,0,0,388.72,19.24Z"/></g></g></svg>