<svg class="icoSVGLogo" viewBox="0 0 41 37" aria-labelledby="mutuaLogoAlt"><path d="M5.965 17.044c0-6.938 5.623-12.561 12.563-12.561 6.934 0 12.562 5.622 12.562 12.561v19.471H5.965z" style="fill:#009ee2"/><path d="m13.375 29.475-.897 2.65H9.604l-.762-2.348v2.348H.172v-3.008h2.024c.293 0 .394-.092.394-.316V18.492c0-.224-.096-.315-.392-.315H.171V15.17h8.53l2.884 9.253c.715-2.594 3.053-9.253 3.053-9.253h8.109l2.886 9.253c.71-2.594 3.052-9.253 3.052-9.253h8.227v3.007h-2.118c-.295 0-.393.091-.393.315l-.004 10.167c0 .309.147.459.41.459h2.104v3.008h-9.477v-2.699q-.452 1.35-.911 2.699h-2.872l-.803-2.426v2.422h-9.474v-2.647zm-6.634-.368h1.876l-2.322-7.129.001 6.816c0 .294.36.313.445.313m23.273-.312V21.41c-.786 2.58-1.636 5.139-2.491 7.697h2.088c.294 0 .403-.091.403-.312m-9.259.312h1.905l-2.319-7.143v6.688c0 .307.145.455.414.455m-4.761-.306-.01-7.385a266 266 0 0 1-2.482 7.691h2.062c.296 0 .43-.082.43-.306" style="fill:#fff"/><path d="M27.548 31.99v-2.754h2.066c.154 0 .515-.029.515-.303v-7.882L26.418 31.99H23.73l-3.518-10.826v7.439c0 .585.234.633.517.633h1.992v2.754h-9.217v-2.754h2.061c.157 0 .521-.029.521-.303V21.04l-3.714 10.95H9.686l-3.52-10.828v7.771c0 .295.562.303.568.303h1.967v2.754H.288v-2.754h1.898c.516 0 .516-.064.516-.303V18.347c0-.15 0-.306-.424-.306H.288V15.29h8.305l2.88 9.235 3.241-9.235h7.924l2.88 9.235 3.243-9.235h8.005v2.751H34.68c-.421 0-.421.156-.421.306v10.256c0 .585.235.633.521.633h1.986v2.754z" fill="#004B93"/><path d="M36.266 15.79v1.751H34.68c-.541 0-.921.237-.921.806v10.256c0 .754.354 1.133 1.021 1.133h1.486v1.754h-8.218v-1.754h1.566c.638 0 1.015-.332 1.015-.803V18.154h-.045L26.06 31.49h-1.966l-4.333-13.336h-.048v10.449c0 .754.353 1.133 1.017 1.133h1.492v1.754h-8.217v-1.754h1.561c.641 0 1.021-.332 1.021-.803V18.154h-.049L12.014 31.49h-1.965L5.713 18.154h-.047v10.779c0 .566.569.803 1.068.803h1.467v1.754H.788v-1.754h1.398c.755 0 1.016-.236 1.016-.803V18.347c0-.569-.378-.806-.924-.806H.788V15.79h7.437l3.198 10.255h.046l3.599-10.255h7.202l3.198 10.255h.046l3.602-10.255zm1-1h-8.859l-.234.668-2.626 7.477-2.321-7.443-.22-.702h-8.647l-.234.669-2.625 7.477-2.321-7.443-.219-.703H-.212v3.751h2.414v10.195H-.212v3.754h9.413v-.374l.122.374h3.409l.23-.679.044-.13v.809h10.217v-.448l.146.448h3.41l.23-.679.041-.122v.801h10.218v-3.754h-2.499a1 1 0 0 1-.008-.133V18.541h2.507V14.79zM14.004 28.736l1.583-4.665v4.665zm14.046 0 1.579-4.654v4.654zm-21.384-.004v-4.415l1.437 4.419H6.734zm14.055.004a1 1 0 0 1-.008-.133v-4.282l1.435 4.415z" fill="#FFF"/></svg>